<?xml version="1.0" encoding="UTF-8"?>
<!DOCTYPE svg PUBLIC "-//W3C//DTD SVG 1.1//EN" "http://www.w3.org/Graphics/SVG/1.1/DTD/svg11.dtd">
<!-- Creator: CorelDRAW X7 -->
<svg xmlns="http://www.w3.org/2000/svg" xml:space="preserve" width="95mm" height="30mm" version="1.1" style="shape-rendering:geometricPrecision; text-rendering:geometricPrecision; image-rendering:optimizeQuality; fill-rule:evenodd; clip-rule:evenodd"
viewBox="0 0 9500 3000"
 xmlns:xlink="http://www.w3.org/1999/xlink">
 <defs>
  <style type="text/css">
   <![CDATA[
    .fil1 {fill:#305E91;fill-rule:nonzero}
    .fil0 {fill:#2D5E91;fill-rule:nonzero}
   ]]>
  </style>
 </defs>
 <g id="Ebene_x0020_1">
  <metadata id="CorelCorpID_0Corel-Layer"/>
  <path class="fil0" d="M2860 1034c19,-44 49,-77 116,-150 45,-49 99,-93 132,-120 88,-68 210,-132 262,-143 51,-12 171,-32 248,-18 78,15 191,68 231,91 21,12 77,49 131,93 55,45 108,96 129,124 30,38 56,62 82,118 12,24 23,62 36,97 25,64 23,55 32,72 8,17 26,40 20,72 -6,31 -6,54 -37,63 -32,9 -67,-21 -107,-21 -40,0 -68,-3 -68,15 0,17 31,29 77,55 46,26 106,59 115,92 8,33 7,40 -4,52 -10,11 -33,32 -93,0 -61,-32 -224,-130 -245,-141 -22,-12 -55,-13 -63,-12 -9,2 -32,6 -32,18 0,11 18,33 32,46 25,21 189,103 238,126 49,23 105,56 108,73 3,17 4,40 -17,50 -22,10 -42,3 -85,-15 -43,-19 -112,-50 -138,-61 -26,-11 -46,-13 -50,-7 -5,6 -1,26 9,39 11,13 146,141 150,161 4,20 -3,43 -8,51 -6,9 -41,23 -72,3 -32,-20 -148,-146 -148,-146 0,0 -22,-10 -26,-4 -3,3 -6,33 6,73 9,28 16,53 21,70 12,40 24,87 11,114 -13,28 -48,41 -68,23 -20,-19 -26,-38 -43,-95 -17,-58 -30,-121 -40,-141 -11,-20 -12,-36 -25,-26 -13,10 -20,36 -21,66 -2,30 1,95 3,131 1,36 1,67 -11,82 -11,14 -34,11 -51,7 -20,-5 -29,-56 -33,-98 -5,-41 -3,-234 -3,-257 0,-23 -6,-73 -16,-77 -10,-5 -18,-3 -22,-4 -10,-2 -29,16 -28,104 2,87 -2,202 -10,239 -7,37 -16,92 -29,96 -13,4 -56,11 -62,-22 -6,-33 -4,-89 3,-134 7,-47 6,-132 4,-140 -1,-4 -9,-15 -17,-12 -8,3 -20,25 -23,31 -2,4 -12,28 -21,59 -17,59 -36,141 -42,150 -9,15 -27,52 -56,45 -29,-7 -33,-53 -33,-76 0,-23 8,-58 17,-86 8,-28 20,-72 22,-87 1,-14 3,-30 -3,-33 -2,-1 -9,-3 -18,1 -14,7 -33,23 -45,36 -20,22 -106,109 -121,114 -15,5 -50,0 -56,-18 -6,-19 -10,-34 10,-59 20,-26 133,-122 140,-151 7,-28 -12,-42 -29,-35 -18,8 -39,13 -107,58 -66,44 -109,67 -126,47 -17,-20 -14,-52 7,-74 9,-10 42,-33 83,-58 49,-30 107,-66 141,-80 58,-25 111,-52 117,-69 5,-17 14,-33 1,-39 -13,-6 -40,-4 -49,-1 -8,2 -31,8 -85,38 -55,30 -180,112 -203,127 -23,14 -69,18 -78,-3 -11,-26 -14,-52 -1,-68 14,-17 61,-54 105,-80 45,-26 59,-25 69,-44 10,-18 9,-26 -6,-32 -16,-6 -91,17 -118,24 -28,7 -86,12 -96,-17 -10,-29 -8,-70 4,-89 11,-19 37,-90 44,-106 9,-19 24,-78 32,-97zm999 -205c0,0 -51,52 -67,73 -16,22 -33,45 -37,56 -8,21 -2,39 -2,39 0,0 5,9 10,9 6,0 12,3 48,-23 36,-26 61,-71 67,-79 7,-8 22,-40 26,-50 5,-10 10,-19 12,-36 1,-10 0,-14 -5,-18 -2,-1 -9,0 -16,4 -14,8 -36,25 -36,25zm-379 84c-2,16 -9,42 -15,66 -5,21 -11,41 -12,51 -1,10 -2,38 -2,63 0,23 2,44 4,52 2,9 10,23 17,34 4,8 8,15 8,17l2 8c-9,-3 -29,-10 -58,-25l-13 -7c-34,-19 -50,-27 -80,-30 -16,-1 -44,-2 -72,-2 -25,1 -50,2 -68,4 -18,2 -37,2 -55,1 -17,-1 -33,-3 -42,-7 -18,-7 -64,-30 -64,-30l-4 8c0,0 95,68 120,69l7 1c31,2 116,7 147,12 21,4 56,10 84,15 18,4 32,7 37,9 5,2 15,6 26,10 21,7 46,16 51,20 3,2 5,5 7,8 0,1 1,2 1,3 -1,0 -1,1 -1,1 -1,1 -3,1 -5,2 -9,1 -43,-7 -74,-14 -20,-5 -38,-10 -47,-11 -12,-1 -45,-7 -76,-12 -29,-5 -56,-10 -64,-12l-2 0c-17,-5 -39,-10 -78,-12 -9,0 -17,0 -26,-1 -30,-1 -57,-3 -82,3 -30,7 -76,26 -76,26l2 8c0,0 91,-17 134,-11 29,4 62,24 82,37 9,5 16,10 20,10l12 3c26,5 79,16 104,17 14,1 34,1 53,1 24,0 48,-1 52,1l12 4c-5,2 -11,7 -17,13 -9,8 -47,48 -76,90 -17,24 -31,49 -35,68 -9,44 -20,71 -27,89l-4 10c-3,7 -11,19 -21,32 -15,19 -32,39 -40,47l-2 2c-7,11 -7,14 -1,11 2,0 4,-1 7,-5l3 -2 9 -8c19,-15 54,-46 68,-64 16,-21 29,-43 44,-71 5,-10 11,-20 17,-30l18 -33c20,-36 42,-75 53,-89l11 -13c11,-13 20,-25 33,-35 13,-10 22,-17 26,-19 1,0 3,2 3,6 0,5 -1,13 -4,21 -2,6 -5,11 -8,14 -5,6 -32,37 -53,64 -14,18 -26,33 -28,38 -3,7 -13,24 -26,45 -9,17 -21,36 -30,52l-14 26c-19,33 -39,68 -45,90 -10,37 6,28 6,28l2 -1 0 -1c0,-1 16,-60 49,-89 10,-9 20,-17 29,-24 20,-16 36,-29 49,-48 15,-23 36,-58 48,-78l20 -34c4,-7 7,-13 10,-18 6,-11 8,-17 10,-23l0 -2c1,-3 2,-7 3,-12l1 -6 0 1c1,4 2,8 4,13 3,7 10,24 17,42 9,21 18,43 22,51 4,9 17,30 30,49 10,15 21,29 28,36 9,8 20,15 30,23 11,8 22,16 29,23 7,7 15,17 23,28 8,10 15,22 21,33 11,20 21,70 21,70l9 -1c0,-1 -12,-93 -54,-156 -32,-47 -90,-137 -116,-178l-15 -23c-1,-2 -5,-6 -9,-11 -6,-7 -14,-17 -17,-21 -2,-4 -4,-10 -4,-15 0,-3 0,-6 2,-7 2,-2 4,-3 7,-3 3,1 7,2 12,7 5,5 27,34 49,65 23,32 45,66 50,76 7,13 34,59 53,92 9,15 17,28 19,33 4,6 30,34 57,62 30,31 63,62 66,62 3,0 5,-1 5,-4 0,-3 -12,-18 -29,-37 -32,-38 -81,-97 -84,-112 -1,-8 -1,-13 -1,-18 1,-10 1,-18 -10,-43 -10,-22 -25,-52 -40,-78 -12,-19 -23,-36 -33,-47 -10,-10 -21,-19 -30,-26 -14,-11 -25,-20 -30,-30 0,-1 0,-3 1,-5 0,-1 1,-3 1,-3 7,-5 21,-2 36,1 9,2 19,4 27,4 13,0 36,-1 61,-5 18,-2 36,-6 51,-11 22,-7 36,-15 48,-23 8,-5 16,-10 26,-14 22,-9 35,-11 59,-15l6 -1c23,-3 34,-3 45,-3l9 0c7,0 13,1 19,2 6,0 12,1 19,3 14,3 34,7 34,7l22 4 -19 -12c0,0 -45,-26 -101,-28 -25,-1 -53,1 -78,3 -30,2 -56,6 -68,9 -13,3 -65,16 -111,26 -30,6 -57,12 -70,14 -14,2 -25,6 -34,9 -9,3 -15,6 -18,3 -5,-3 -7,-5 -8,-8 0,-2 1,-5 5,-8 6,-6 21,-16 40,-24 14,-6 30,-11 47,-12l69 -8c23,-2 42,-4 45,-4 4,0 22,-3 40,-7 14,-3 28,-6 37,-7 5,-1 10,-2 15,-2 15,-2 34,-4 57,-11 16,-5 29,-9 40,-12 12,-3 21,-6 31,-7 10,-1 18,-3 24,-4 8,-2 15,-3 19,-3l2 0c9,0 15,-1 17,-3 5,-1 5,-3 1,-4 -2,-2 -9,-3 -19,-2l-10 0c-17,-1 -54,-1 -102,3 -50,4 -69,1 -84,-3 -7,-1 -14,-2 -22,-3 -14,0 -44,3 -76,9 -28,6 -58,13 -78,20 -20,8 -47,25 -68,39 -12,7 -21,13 -27,16 4,-6 8,-10 12,-14 8,-7 14,-13 19,-27 4,-12 8,-41 10,-72 2,-24 2,-50 -2,-69 -4,-25 -10,-47 -15,-64 -4,-13 -7,-24 -8,-30 0,-8 0,-15 0,-22 0,-7 0,-15 -1,-23 -1,-7 -2,-14 -3,-21 -2,-7 -3,-15 -4,-25l-1 -4c0,-9 -1,-17 -1,-25l2 -8c2,-10 3,-17 -1,-18 -3,-1 -5,1 -6,6 -2,7 -3,13 -3,19 -3,17 -7,40 -7,53 -1,15 -2,37 -2,65 -1,22 0,46 0,72 1,40 -3,90 -6,126 -1,18 -3,32 -3,39 0,11 -1,23 -3,34 -1,9 -3,17 -6,19 -2,3 -5,6 -9,8 -1,1 -3,1 -4,1 -1,0 -2,-1 -4,-2 -1,-1 -3,-3 -4,-6 -5,-10 -10,-29 -15,-50 -4,-18 -7,-37 -8,-53 0,-12 -1,-26 -2,-39 -3,-28 -5,-57 -2,-70 2,-12 5,-26 6,-38 2,-9 3,-18 3,-25 0,-4 0,-4 0,-5 2,-3 4,-7 1,-41 -4,-51 -7,-101 -7,-101l-4 0 -5 0c0,0 -8,75 -13,103zm-324 -101c-5,4 -2,22 0,31 1,9 17,34 17,34 0,0 26,40 46,66 20,25 63,62 80,61 20,0 21,-12 22,-18 2,-12 -7,-29 -13,-42 -8,-16 -47,-64 -55,-73 -5,-7 -38,-38 -56,-49 -15,-10 -32,-17 -41,-10z"/>
  <path class="fil1" d="M1776 333c3,27 5,52 5,77 0,62 -12,139 -37,226 -27,89 -67,191 -119,307 -3,-7 -8,-19 -13,-34 -161,-454 -285,-683 -372,-683 -35,0 -64,8 -92,25 -25,17 -52,42 -74,79 57,43 119,122 186,241 65,119 146,303 248,551 -97,169 -179,300 -248,395 -67,94 -117,141 -144,141 -37,0 -144,-248 -318,-742 -57,-159 -104,-288 -136,-380 -52,-143 -94,-235 -127,-273 -29,-37 -69,-57 -116,-57 -30,0 -57,8 -85,25 -27,15 -54,40 -84,72 77,60 194,300 352,722 97,261 179,469 244,626 42,106 84,191 119,248 37,59 67,89 89,89 37,0 99,-59 194,-179 91,-116 206,-287 342,-508 3,2 5,10 10,20 213,444 342,667 387,667 40,0 176,-186 407,-561l7 -10c125,-198 219,-389 286,-573 67,-183 102,-342 102,-476 0,-57 -10,-100 -30,-124 -20,-25 -52,-38 -97,-38 -20,0 -42,3 -64,8 -25,5 -50,12 -75,22 10,30 17,60 22,92 5,30 8,62 8,97 0,144 -30,300 -87,464 -60,164 -151,352 -280,566 -33,54 -65,99 -97,136 -32,37 -55,57 -65,57 -20,0 -54,-45 -109,-131 -54,-87 -124,-216 -208,-385 99,-191 171,-350 221,-481 49,-129 74,-229 74,-296 0,-44 -7,-79 -25,-99 -17,-20 -47,-30 -84,-30 -20,0 -40,3 -62,8 -23,2 -47,10 -72,20 7,27 12,52 17,79zm3057 52c28,-2 55,-5 82,-5 124,0 221,30 291,87 67,57 101,139 101,243 0,137 -47,246 -139,323 -94,77 -223,116 -387,116 -7,0 -15,0 -30,0 -12,-2 -19,-2 -27,-2 0,-117 3,-236 5,-360 3,-124 8,-253 15,-387 30,-7 60,-12 89,-15zm611 625c67,-91 99,-203 99,-332 0,-149 -52,-266 -156,-352 -104,-87 -248,-130 -430,-130 -14,0 -76,3 -191,10 -114,8 -223,13 -327,15 25,55 44,134 54,236 13,102 18,261 18,474 0,166 -3,342 -10,531 -8,189 -13,293 -13,318 0,69 8,116 25,139 15,22 45,34 90,34 27,0 59,-5 91,-15 33,-9 67,-24 107,-47 -25,-44 -42,-111 -52,-193 -12,-85 -20,-216 -25,-397 27,-3 50,-5 70,-5 17,-3 34,-3 47,-3 111,0 265,117 454,348 64,74 112,131 149,173 49,57 92,100 126,124 38,25 70,38 100,38 34,0 67,-13 91,-40 28,-27 53,-74 75,-136 -47,-13 -104,-48 -174,-102 -67,-57 -146,-134 -238,-233 -12,-13 -30,-33 -55,-60 -86,-99 -158,-159 -218,-179 129,-49 226,-121 293,-216zm2447 -791c-23,-10 -48,-15 -70,-15 -40,0 -82,22 -121,69 -43,45 -90,122 -142,231 -50,99 -114,233 -198,400 -199,402 -308,605 -330,605 -10,0 -33,-30 -67,-87 -33,-59 -95,-178 -187,-359 -39,-80 -94,-187 -158,-323 -174,-357 -298,-536 -378,-536 -24,0 -49,5 -72,15 -19,12 -44,27 -72,52 13,50 23,104 30,159 8,54 10,111 10,176 0,265 -17,506 -49,722 -33,218 -82,405 -144,563 39,20 74,38 106,47 30,10 55,15 77,15 28,0 50,-5 65,-17 17,-10 27,-30 37,-55 15,-44 30,-215 42,-513 13,-298 25,-549 40,-752 57,104 131,246 221,424 92,176 201,397 332,663 5,12 13,27 23,47 42,89 81,134 121,134 20,0 35,-8 50,-20 17,-12 32,-35 47,-64 12,-25 35,-72 69,-144 187,-378 365,-727 534,-1045 22,263 42,531 55,806 12,278 22,425 27,445 7,32 22,54 42,69 20,15 45,22 79,22 33,0 65,-5 100,-15 34,-9 69,-27 109,-47 -65,-158 -114,-345 -147,-563 -32,-216 -49,-454 -49,-715 0,-64 2,-126 10,-181 7,-54 17,-109 32,-161 -27,-25 -55,-40 -74,-52zm441 1543c-7,25 -12,47 -12,67 0,47 17,82 52,107 35,22 87,35 156,35 102,0 196,-20 283,-62 90,-40 162,-97 221,-174 35,-45 62,-92 80,-136 17,-48 24,-97 24,-144 0,-129 -109,-283 -330,-469 -17,-15 -32,-28 -42,-35 -64,-55 -109,-102 -134,-142 -22,-39 -35,-84 -35,-131 0,-82 30,-144 87,-191 60,-47 142,-70 243,-70 35,0 67,3 100,10 34,8 64,18 96,30 20,-32 35,-60 48,-84 10,-25 14,-43 14,-57 0,-43 -14,-75 -47,-95 -32,-22 -79,-32 -141,-32 -87,0 -171,17 -256,55 -82,37 -159,91 -231,161 -47,47 -84,99 -109,156 -27,60 -39,117 -39,176 0,127 104,276 315,442 5,5 7,8 10,10l2 0c144,119 216,221 216,310 0,75 -27,132 -82,176 -57,43 -131,65 -228,65 -40,0 -80,-5 -114,-12 -38,-10 -72,-23 -107,-43 -17,28 -30,52 -40,77z"/>
  <path class="fil0" d="M735 2265c0,7 1,13 1,19 0,16 -3,35 -9,57 -7,22 -17,47 -30,77 -1,-2 -2,-5 -3,-9 -40,-114 -71,-171 -93,-171 -9,0 -16,2 -23,7 -6,4 -13,10 -19,19 15,11 30,31 47,61 16,29 36,75 62,137 -24,42 -45,75 -62,99 -17,24 -29,35 -36,35 -10,0 -36,-62 -80,-185 -14,-40 -26,-72 -34,-95 -13,-36 -23,-59 -31,-68 -8,-10 -18,-15 -30,-15 -7,0 -14,2 -21,7 -6,3 -13,10 -21,18 19,14 49,75 88,180 25,65 45,117 61,156 11,27 21,48 30,62 9,15 17,23 22,23 10,0 25,-15 49,-45 23,-29 51,-72 85,-127 1,1 2,2 3,5 53,111 85,167 97,167 9,0 44,-47 101,-140l2 -3c31,-49 55,-97 71,-143 17,-46 26,-86 26,-119 0,-15 -3,-25 -8,-31 -4,-7 -13,-10 -24,-10 -5,0 -10,1 -16,2 -6,1 -12,3 -18,6 2,7 4,15 5,23 1,7 2,15 2,24 0,36 -7,75 -22,116 -15,41 -38,88 -70,141 -8,14 -16,25 -24,35 -8,9 -14,14 -16,14 -5,0 -14,-11 -27,-33 -14,-22 -31,-54 -53,-96 25,-48 43,-88 56,-121 12,-32 18,-57 18,-73 0,-12 -2,-20 -6,-25 -4,-5 -12,-8 -21,-8 -5,0 -10,1 -16,2 -5,1 -11,3 -18,5 2,7 4,13 5,20zm338 338c-20,-21 -31,-48 -31,-80 0,-36 11,-65 31,-87 21,-21 47,-33 81,-33 32,0 59,11 79,32 21,21 31,48 31,82 0,34 -10,63 -31,84 -21,22 -48,33 -81,33 -32,0 -58,-10 -79,-31zm151 57c23,-12 43,-29 61,-52 10,-12 18,-27 23,-44 6,-17 8,-35 8,-52 0,-43 -15,-79 -44,-108 -29,-29 -67,-43 -112,-43 -50,0 -91,15 -123,45 -32,30 -47,69 -47,117 0,45 15,83 44,111 30,29 68,44 115,44 28,0 52,-6 75,-18zm210 -247c1,-4 1,-8 1,-10 0,-12 -3,-21 -9,-26 -6,-6 -14,-8 -26,-8 -4,0 -8,0 -12,1 -4,0 -8,2 -12,3 4,11 8,22 10,36 2,14 3,33 3,60 0,31 -1,65 -3,101 -2,36 -3,57 -3,63 0,15 2,25 5,30 4,5 11,7 21,7 7,0 15,-1 23,-3 7,-2 15,-6 23,-10 -7,-13 -12,-30 -15,-50 -3,-20 -5,-45 -5,-75 0,-10 0,-18 0,-28 1,-9 2,-19 3,-27 10,-19 21,-33 32,-43 11,-10 21,-14 31,-14 7,0 13,1 18,6 4,4 8,11 11,20 10,-7 16,-13 21,-20 4,-6 7,-13 7,-20 0,-11 -4,-19 -12,-27 -8,-7 -18,-10 -29,-10 -13,0 -27,5 -41,15 -13,11 -28,26 -43,48 1,-8 1,-14 1,-19zm235 195c-3,-20 -4,-53 -4,-98 0,-41 1,-90 4,-145 2,-55 3,-89 3,-102 0,-15 -2,-26 -6,-31 -4,-5 -10,-7 -20,-7 -7,0 -14,1 -21,3 -8,2 -16,5 -24,10 6,12 11,29 14,51 2,23 3,55 3,99 0,35 -1,79 -3,133 -2,54 -3,90 -3,109 0,16 1,26 5,32 4,6 10,8 20,8 7,0 14,-1 21,-3 8,-2 15,-6 24,-11 -7,-11 -11,-27 -13,-48zm276 11c-16,8 -33,13 -52,13 -29,0 -52,-10 -69,-28 -16,-18 -25,-43 -25,-75 0,-38 10,-68 31,-90 20,-22 48,-33 84,-33 11,0 23,1 35,4 12,3 25,8 40,14 0,6 1,13 1,21 0,7 0,19 0,34 0,3 0,16 -1,38 0,22 0,44 0,63 -15,18 -29,31 -44,39zm6 -249c-13,-3 -26,-4 -37,-4 -49,0 -88,15 -120,46 -32,32 -47,71 -47,119 0,42 13,76 38,103 26,27 59,40 99,40 20,0 40,-4 57,-12 17,-8 33,-20 49,-38 0,2 0,4 0,6 -1,2 -1,5 -1,9 0,11 2,19 5,24 3,5 10,7 18,7 5,0 12,-1 20,-3 7,-2 15,-6 24,-11 -7,-11 -12,-29 -15,-52 -3,-24 -4,-62 -4,-113 0,-43 1,-89 4,-141 2,-51 4,-81 4,-89 0,-15 -2,-24 -6,-29 -4,-5 -11,-7 -20,-7 -6,0 -12,1 -19,3 -8,2 -15,5 -23,10 5,10 9,25 11,43 3,19 4,43 4,74l0 27c-14,-6 -28,-10 -41,-12zm457 -92c6,-1 13,-1 20,-1 31,0 55,7 73,22 16,14 25,34 25,60 0,34 -12,62 -35,81 -23,19 -56,29 -97,29 -1,0 -3,0 -7,0 -3,0 -5,0 -7,0 0,-30 1,-59 1,-90 1,-31 2,-64 4,-97 8,-2 15,-3 23,-4zm152 156c17,-23 25,-50 25,-83 0,-37 -13,-66 -39,-88 -26,-22 -62,-32 -107,-32 -4,0 -20,1 -48,2 -29,2 -56,3 -82,4 6,14 11,34 14,59 3,25 4,65 4,119 0,41 -1,85 -3,132 -1,47 -3,74 -3,80 0,17 2,29 6,34 4,6 12,9 23,9 7,0 15,-1 23,-4 8,-2 17,-6 26,-11 -6,-12 -10,-28 -13,-49 -3,-21 -5,-54 -6,-99 7,-1 13,-1 18,-1 4,-1 8,-1 11,-1 28,0 67,29 114,87 16,19 28,33 37,43 13,15 23,25 32,31 9,7 17,10 25,10 8,0 16,-3 23,-10 6,-7 13,-19 18,-34 -12,-3 -26,-12 -43,-26 -17,-14 -37,-33 -60,-58 -3,-3 -7,-8 -13,-15 -22,-25 -40,-40 -55,-45 32,-12 56,-30 73,-54zm189 -10c15,-14 35,-22 58,-22 23,0 40,6 52,16 13,11 20,26 20,44 0,12 -5,20 -13,25 -8,4 -25,7 -51,7 -18,0 -36,-1 -52,-2 -16,-1 -31,-2 -44,-5 5,-27 14,-48 30,-63zm112 200c-13,4 -27,6 -42,6 -32,0 -57,-9 -76,-27 -18,-19 -28,-44 -28,-76l0 -4c16,3 32,4 48,5 16,1 31,2 47,2 43,0 73,-5 91,-15 18,-10 27,-27 27,-50 0,-29 -11,-54 -33,-72 -21,-19 -48,-29 -81,-29 -44,0 -79,15 -107,45 -27,30 -41,68 -41,115 0,46 14,83 41,109 27,27 65,40 113,40 26,0 48,-4 64,-11 16,-7 24,-16 24,-27 0,-4 -1,-9 -3,-13 -2,-5 -5,-10 -10,-16 -10,8 -22,14 -34,18zm188 -114c-13,-12 -20,-28 -20,-46 0,-19 7,-34 20,-45 13,-12 31,-17 52,-17 21,0 38,5 51,17 13,12 19,27 19,46 0,18 -6,33 -19,45 -14,12 -31,18 -52,18 -20,0 -38,-6 -51,-18zm-27 70c-4,7 -6,14 -6,21 0,5 1,10 3,15 3,4 7,9 12,13 -23,10 -40,22 -52,37 -12,15 -17,33 -17,53 0,28 12,50 35,67 23,17 55,25 96,25 43,0 78,-10 106,-30 28,-20 41,-45 41,-76 0,-22 -6,-38 -20,-50 -13,-12 -39,-21 -76,-30 -5,-1 -13,-3 -22,-5 -39,-8 -58,-19 -58,-34 0,-3 1,-7 3,-11 2,-4 5,-7 9,-11 5,1 9,1 14,1 5,1 9,1 13,1 32,0 60,-9 81,-29 22,-18 33,-42 33,-70 0,-10 -1,-19 -5,-28 -3,-10 -8,-18 -16,-28 19,-2 33,-6 40,-12 8,-6 12,-13 12,-24 0,-5 -1,-9 -3,-14 -2,-5 -5,-9 -9,-13 -3,5 -10,9 -21,14 -11,5 -27,11 -50,17 -12,-6 -22,-10 -33,-13 -10,-4 -21,-5 -31,-5 -35,0 -64,10 -86,31 -22,19 -33,45 -33,76 0,19 5,36 15,51 9,14 24,26 44,36 -8,9 -15,17 -19,25zm44 72c83,19 123,40 123,65 0,16 -8,29 -24,39 -16,10 -38,15 -64,15 -28,0 -49,-5 -65,-17 -17,-11 -25,-26 -25,-45 0,-12 4,-23 12,-33 9,-10 21,-18 38,-25l5 1zm299 -40c-3,-17 -4,-40 -4,-67 0,-29 1,-59 3,-91 2,-33 2,-50 2,-53 0,-13 -2,-21 -5,-26 -3,-4 -10,-6 -19,-6 -8,0 -15,1 -23,3 -8,2 -16,6 -23,10 5,11 9,25 11,41 3,15 4,36 4,61 0,24 -1,51 -2,83 -2,33 -4,54 -4,63 0,16 2,26 6,32 3,6 10,8 20,8 7,0 14,-1 22,-3 8,-2 16,-6 24,-11 -5,-11 -9,-26 -12,-44zm0 -360c-7,-7 -15,-10 -26,-10 -12,0 -21,4 -29,12 -8,8 -13,18 -13,29 0,10 4,19 10,24 6,6 15,10 25,10 13,0 22,-4 31,-12 8,-8 12,-17 12,-29 0,-10 -3,-18 -10,-24zm86 387c-2,4 -3,9 -3,13 0,8 3,14 9,18 6,4 15,7 26,7 32,0 59,-9 81,-27 23,-19 34,-41 34,-65 0,-11 -3,-22 -9,-32 -6,-10 -14,-21 -26,-31 -4,-3 -9,-8 -16,-14 -28,-24 -42,-43 -42,-57 0,-14 5,-24 15,-32 11,-8 24,-13 41,-13 4,0 9,1 14,2 5,2 10,3 16,5 4,-7 7,-13 9,-18 2,-5 3,-8 3,-12 0,-7 -3,-13 -8,-16 -5,-4 -12,-6 -22,-6 -20,0 -39,4 -55,12 -18,8 -33,20 -45,35 -7,8 -12,16 -16,25 -3,9 -4,18 -4,27 0,22 17,47 51,75 4,3 7,5 9,7 13,12 22,21 27,28 5,8 7,16 7,25 0,11 -4,21 -13,27 -9,7 -21,11 -35,11 -6,0 -13,-1 -20,-3 -6,-1 -13,-5 -20,-8 -4,7 -6,12 -8,17zm235 -122c-1,37 -3,59 -3,68 0,29 6,52 16,66 11,14 27,22 49,22 13,0 23,-3 31,-10 9,-7 13,-15 13,-24 0,-3 -1,-5 -1,-9 -1,-3 -2,-6 -4,-10 -4,2 -8,4 -11,5 -3,2 -7,2 -10,2 -12,0 -20,-5 -25,-16 -5,-12 -7,-31 -7,-59 0,-13 0,-30 1,-51 0,-19 2,-46 4,-77 4,0 11,-1 18,-1 7,0 11,0 13,0 8,0 15,0 21,0 6,1 11,2 16,3 3,-5 7,-10 8,-15 2,-5 3,-8 3,-11 0,-6 -1,-10 -4,-12 -4,-3 -8,-4 -15,-4 -7,0 -16,1 -25,1 -9,1 -20,2 -32,4 1,-5 1,-14 2,-23 2,-27 3,-43 3,-48 0,-12 -2,-20 -6,-26 -4,-5 -10,-7 -18,-7 -5,0 -11,1 -17,3 -7,2 -15,6 -24,10 4,9 7,20 9,32 2,11 3,26 3,41 0,2 0,6 0,10 0,4 0,7 0,10 -1,0 -2,0 -3,0 -12,1 -20,1 -26,1 -2,0 -5,0 -9,0 -4,0 -6,0 -8,0 -2,4 -3,8 -4,11 -1,4 -2,7 -2,10 0,5 2,10 5,11 3,3 10,4 18,4 2,0 5,0 11,0 7,0 12,-1 15,-1 -1,24 -3,54 -5,90zm254 -93c15,-14 34,-22 58,-22 22,0 40,6 52,16 13,11 19,26 19,44 0,12 -4,20 -13,25 -8,4 -25,7 -50,7 -19,0 -36,-1 -52,-2 -16,-1 -31,-2 -44,-5 4,-27 14,-48 30,-63zm111 200c-13,4 -26,6 -41,6 -32,0 -57,-9 -76,-27 -19,-19 -28,-44 -28,-76l0 -4c16,3 31,4 47,5 16,1 32,2 48,2 43,0 73,-5 91,-15 17,-10 26,-27 26,-50 0,-29 -10,-54 -32,-72 -21,-19 -48,-29 -82,-29 -43,0 -79,15 -106,45 -28,30 -42,68 -42,115 0,46 14,83 41,109 28,27 65,40 114,40 26,0 48,-4 64,-11 16,-7 24,-16 24,-27 0,-4 -1,-9 -3,-13 -2,-5 -6,-10 -10,-16 -11,8 -22,14 -35,18zm182 -211c1,-4 1,-8 1,-10 0,-12 -4,-21 -9,-26 -6,-6 -14,-8 -26,-8 -5,0 -8,0 -13,1 -3,0 -7,2 -11,3 4,11 8,22 10,36 1,14 3,33 3,60 0,31 -2,65 -3,101 -2,36 -4,57 -4,63 0,15 2,25 6,30 4,5 11,7 21,7 7,0 14,-1 22,-3 8,-2 16,-6 24,-10 -7,-13 -12,-30 -15,-50 -4,-20 -5,-45 -5,-75 0,-10 0,-18 0,-28 1,-9 2,-19 3,-27 10,-19 21,-33 32,-43 11,-10 21,-14 31,-14 7,0 12,1 17,6 5,4 9,11 12,20 9,-7 16,-13 21,-20 4,-6 6,-13 6,-20 0,-11 -3,-19 -11,-27 -8,-7 -18,-10 -30,-10 -13,0 -26,5 -40,15 -14,11 -28,26 -43,48 0,-8 1,-14 1,-19zm417 190c-20,-21 -31,-48 -31,-80 0,-36 11,-65 31,-87 21,-21 48,-33 81,-33 32,0 59,11 80,32 20,21 31,48 31,82 0,34 -11,63 -32,84 -21,22 -47,33 -80,33 -32,0 -58,-10 -80,-31zm152 57c22,-12 43,-29 61,-52 9,-12 17,-27 23,-44 5,-17 8,-35 8,-52 0,-43 -15,-79 -44,-108 -30,-29 -67,-43 -113,-43 -50,0 -91,15 -123,45 -31,30 -47,69 -47,117 0,45 15,83 44,111 30,29 68,44 115,44 28,0 53,-6 76,-18zm175 -227c1,36 2,60 2,75 0,39 -2,70 -5,94 -3,23 -7,41 -13,53 9,5 17,9 24,11 8,3 15,4 22,4 9,0 15,-3 19,-9 4,-5 5,-16 5,-32 0,-3 0,-28 -1,-74 -2,-47 -3,-91 -3,-135 2,0 3,-1 6,-1 1,0 4,0 8,0 15,0 26,1 34,1 7,1 13,2 18,4 3,-7 5,-12 6,-15 1,-3 1,-6 1,-8 0,-7 -2,-11 -5,-14 -3,-3 -8,-5 -15,-5 -10,0 -19,0 -28,0 -9,1 -18,2 -24,2l0 -10c0,-36 3,-62 11,-78 7,-16 19,-24 35,-24 6,0 11,1 16,4 6,3 11,7 15,13 9,-4 15,-9 20,-14 4,-6 7,-11 7,-17 0,-10 -4,-17 -13,-23 -9,-5 -20,-8 -34,-8 -34,0 -62,13 -80,39 -19,27 -28,65 -28,114l0 7 -24 0c-1,0 -3,0 -6,0 -3,0 -6,0 -8,0 -2,3 -3,6 -4,9 -1,3 -2,6 -2,9 0,6 2,10 5,13 3,3 7,5 13,5 2,0 5,0 11,-1 6,0 11,0 15,0 0,2 0,6 0,11zm824 -197c-5,-2 -12,-3 -17,-3 -10,0 -21,5 -30,17 -11,11 -23,31 -36,58 -12,25 -28,58 -49,100 -50,100 -77,151 -83,151 -2,0 -8,-7 -17,-22 -8,-15 -23,-44 -46,-90 -10,-19 -24,-46 -40,-80 -43,-90 -74,-134 -94,-134 -6,0 -13,1 -18,3 -5,4 -11,7 -18,14 3,12 5,26 7,39 2,14 3,28 3,44 0,67 -5,127 -13,181 -8,54 -20,101 -36,141 10,5 19,9 27,11 7,3 14,4 19,4 7,0 13,-1 16,-4 5,-3 7,-8 10,-14 3,-11 7,-54 10,-128 3,-75 6,-137 10,-188 14,26 33,61 55,106 23,44 51,99 83,165 2,4 4,7 6,12 11,23 20,34 30,34 5,0 9,-2 13,-5 4,-3 8,-9 12,-16 3,-7 8,-18 17,-36 47,-95 91,-182 133,-261 6,65 11,132 14,201 3,70 6,106 7,111 2,8 5,14 10,18 5,3 12,5 20,5 8,0 16,-1 25,-4 9,-2 17,-6 27,-11 -16,-40 -28,-87 -36,-141 -8,-54 -13,-114 -13,-179 0,-16 1,-32 3,-45 2,-14 4,-27 8,-40 -7,-7 -14,-10 -19,-14zm345 377c-3,-17 -5,-39 -5,-67 0,-10 0,-24 1,-40 0,-16 1,-28 1,-35 0,-35 -9,-62 -28,-80 -18,-18 -46,-27 -83,-27 -30,0 -55,5 -73,15 -19,9 -28,21 -28,36 0,7 2,13 6,18 3,4 9,7 16,9 8,-13 17,-22 29,-29 12,-6 28,-9 46,-9 23,0 39,6 51,17 12,10 18,26 18,48 0,2 0,4 0,6 0,2 0,4 -1,6 -9,-1 -17,-2 -25,-3 -9,0 -16,0 -23,0 -43,0 -77,9 -103,28 -25,19 -38,44 -38,75 0,28 9,51 28,67 18,17 42,26 73,26 15,0 30,-3 45,-9 15,-7 30,-17 45,-30 0,13 3,21 7,26 4,6 10,9 19,9 5,0 10,-2 17,-4 6,-3 13,-7 21,-12 -7,-11 -13,-24 -16,-41zm-51 -76c0,8 0,13 0,17 0,6 0,12 0,19 0,6 1,14 1,24 -11,11 -22,20 -35,25 -13,6 -26,8 -41,8 -20,0 -35,-5 -46,-14 -11,-9 -17,-22 -17,-39 0,-20 8,-36 24,-46 16,-11 39,-16 71,-16 5,0 11,1 19,1 7,1 16,2 24,3 1,4 1,10 0,18zm190 -124c1,-4 1,-8 1,-10 0,-12 -3,-21 -9,-26 -5,-6 -14,-8 -26,-8 -4,0 -8,0 -12,1 -4,0 -8,2 -12,3 4,11 8,22 10,36 2,14 3,33 3,60 0,31 -1,65 -3,101 -2,36 -3,57 -3,63 0,15 2,25 5,30 4,5 11,7 21,7 7,0 15,-1 23,-3 7,-2 15,-6 23,-10 -7,-13 -12,-30 -15,-50 -3,-20 -5,-45 -5,-75 0,-10 0,-18 0,-28 1,-9 2,-19 3,-27 10,-19 21,-33 32,-43 11,-10 21,-14 31,-14 7,0 13,1 18,6 4,4 8,11 11,20 10,-7 16,-13 21,-20 4,-6 7,-13 7,-20 0,-11 -4,-19 -12,-27 -8,-7 -18,-10 -29,-10 -13,0 -27,5 -41,15 -13,11 -28,26 -43,48 1,-8 1,-14 1,-19zm235 199c-3,-17 -4,-40 -4,-67 0,-29 1,-59 3,-91 2,-33 3,-50 3,-53 0,-13 -2,-21 -5,-26 -4,-4 -10,-6 -20,-6 -8,0 -15,1 -23,3 -8,2 -16,6 -23,10 5,11 9,25 12,41 2,15 3,36 3,61 0,24 0,51 -2,83 -2,33 -3,54 -3,63 0,16 2,26 5,32 3,6 10,8 20,8 7,0 14,-1 23,-3 7,-2 15,-6 24,-11 -6,-11 -10,-26 -13,-44zm0 -360c-7,-7 -15,-10 -26,-10 -12,0 -21,4 -29,12 -8,8 -12,18 -12,29 0,10 3,19 9,24 6,6 15,10 25,10 13,0 23,-4 31,-12 8,-8 12,-17 12,-29 0,-10 -3,-18 -10,-24zm194 163c15,-5 28,-8 41,-8 25,0 42,8 53,25 11,16 17,43 17,79 0,20 -1,43 -2,70 -1,28 -2,45 -2,54 0,13 2,23 6,28 4,5 10,7 20,7 5,0 11,-1 18,-3 8,-2 16,-6 25,-11 -6,-8 -9,-20 -12,-35 -3,-15 -4,-32 -4,-53 0,-8 0,-18 1,-29 0,-12 0,-19 0,-22 0,-29 -2,-51 -4,-65 -3,-15 -6,-27 -13,-37 -8,-16 -20,-28 -36,-37 -16,-9 -34,-13 -55,-13 -17,0 -33,3 -50,9 -17,6 -33,14 -48,25 -1,-11 -5,-19 -11,-25 -6,-6 -15,-9 -25,-9 -5,0 -9,1 -13,1 -5,1 -10,2 -14,3 5,13 9,27 11,42 2,16 3,38 3,66 0,31 -1,62 -3,96 -2,34 -3,52 -3,56 0,17 2,28 5,33 4,6 10,8 19,8 7,0 14,-1 21,-3 7,-2 15,-6 23,-10 -5,-11 -8,-25 -11,-41 -2,-16 -4,-38 -4,-64 0,-3 1,-17 2,-43 0,-26 1,-49 1,-72 15,-9 30,-17 44,-22zm311 9c16,-14 35,-22 59,-22 22,0 39,6 52,16 13,11 19,26 19,44 0,12 -4,20 -13,25 -8,4 -25,7 -50,7 -19,0 -36,-1 -52,-2 -17,-1 -31,-2 -44,-5 4,-27 14,-48 29,-63zm112 200c-13,4 -27,6 -42,6 -31,0 -57,-9 -75,-27 -19,-19 -28,-44 -28,-76l0 -4c15,3 31,4 47,5 16,1 32,2 48,2 43,0 72,-5 90,-15 18,-10 27,-27 27,-50 0,-29 -11,-54 -32,-72 -21,-19 -49,-29 -82,-29 -44,0 -79,15 -106,45 -28,30 -42,68 -42,115 0,46 14,83 41,109 27,27 65,40 114,40 26,0 47,-4 64,-11 16,-7 24,-16 24,-27 0,-4 -2,-9 -3,-13 -2,-5 -6,-10 -10,-16 -11,8 -23,14 -35,18zm300 -2c-2,7 -3,12 -3,17 0,12 4,21 13,27 8,5 21,8 39,8 25,0 49,-4 70,-15 23,-10 41,-24 56,-43 8,-12 15,-23 19,-35 5,-11 7,-24 7,-36 0,-32 -28,-70 -83,-117 -4,-4 -8,-7 -10,-8 -17,-14 -28,-26 -34,-36 -6,-10 -9,-21 -9,-33 0,-20 8,-36 22,-48 15,-11 35,-17 61,-17 9,0 17,1 25,3 8,1 16,4 24,7 5,-8 9,-15 12,-21 2,-6 3,-11 3,-14 0,-11 -3,-19 -11,-24 -8,-5 -20,-8 -36,-8 -21,0 -43,4 -64,14 -20,9 -39,23 -57,40 -12,12 -21,25 -28,39 -6,15 -10,29 -10,44 0,32 26,69 79,111 1,1 2,1 3,2l0 0c36,30 54,55 54,78 0,18 -7,32 -20,44 -14,10 -33,16 -57,16 -10,0 -20,-1 -29,-3 -9,-3 -18,-6 -26,-11 -5,7 -8,13 -10,19zm335 -112c0,-27 0,-50 0,-68 15,-10 29,-18 44,-23 15,-5 28,-8 41,-8 31,0 56,10 75,30 18,20 28,46 28,79 0,32 -10,57 -31,78 -20,20 -46,31 -78,31 -14,0 -27,-3 -41,-7 -13,-5 -27,-11 -40,-19 1,-35 1,-66 2,-93zm36 154c13,4 29,6 45,6 43,0 81,-15 112,-46 31,-31 46,-69 46,-112 0,-40 -14,-75 -41,-102 -28,-27 -62,-41 -103,-41 -16,0 -33,3 -50,9 -17,6 -33,14 -48,25 0,-11 -3,-19 -9,-25 -6,-6 -14,-9 -24,-9 -5,0 -10,1 -14,1 -4,1 -9,2 -13,4 6,13 9,29 12,49 2,20 3,52 3,96 0,41 -1,90 -3,146 -3,55 -5,90 -5,104 0,13 2,23 6,28 4,5 10,7 19,7 6,0 13,-1 19,-3 7,-2 15,-6 24,-10 -6,-11 -9,-25 -12,-43 -2,-17 -3,-39 -3,-67 0,-9 0,-16 0,-21 0,-5 0,-10 0,-15 13,9 26,15 39,19zm332 -240c16,-14 35,-22 58,-22 23,0 40,6 53,16 13,11 19,26 19,44 0,12 -5,20 -13,25 -8,4 -25,7 -50,7 -19,0 -36,-1 -53,-2 -16,-1 -31,-2 -44,-5 5,-27 15,-48 30,-63zm112 200c-13,4 -27,6 -42,6 -31,0 -57,-9 -75,-27 -19,-19 -28,-44 -28,-76l0 -4c15,3 31,4 47,5 16,1 31,2 48,2 42,0 72,-5 90,-15 18,-10 27,-27 27,-50 0,-29 -11,-54 -32,-72 -22,-19 -49,-29 -82,-29 -44,0 -79,15 -106,45 -28,30 -42,68 -42,115 0,46 14,83 41,109 27,27 65,40 113,40 27,0 48,-4 64,-11 17,-7 25,-16 25,-27 0,-4 -2,-9 -4,-13 -1,-5 -5,-10 -9,-16 -11,8 -23,14 -35,18zm330 -214c3,-5 4,-10 4,-16 0,-10 -4,-18 -13,-23 -9,-5 -22,-7 -39,-7 -48,0 -89,16 -122,50 -34,33 -50,75 -50,124 0,41 13,74 41,99 27,26 63,38 108,38 25,0 45,-4 60,-11 15,-8 22,-17 22,-30 0,-5 -1,-9 -3,-14 -2,-4 -4,-9 -8,-14 -9,7 -20,13 -31,16 -11,4 -23,6 -36,6 -31,0 -55,-9 -73,-27 -18,-18 -28,-42 -28,-72 0,-34 10,-62 31,-84 20,-22 46,-33 77,-33 9,0 17,1 24,3 8,3 15,6 23,11 7,-6 10,-11 13,-16zm126 202c-3,-17 -5,-40 -5,-67 0,-29 2,-59 4,-91 1,-33 2,-50 2,-53 0,-13 -2,-21 -5,-26 -4,-4 -10,-6 -19,-6 -8,0 -16,1 -24,3 -7,2 -15,6 -23,10 6,11 10,25 12,41 3,15 4,36 4,61 0,24 -1,51 -3,83 -2,33 -3,54 -3,63 0,16 2,26 6,32 3,6 10,8 20,8 6,0 14,-1 22,-3 7,-2 16,-6 24,-11 -5,-11 -10,-26 -12,-44zm0 -360c-7,-7 -16,-10 -26,-10 -12,0 -21,4 -29,12 -8,8 -13,18 -13,29 0,10 3,19 9,24 7,6 15,10 26,10 12,0 22,-4 30,-12 8,-8 13,-17 13,-29 0,-10 -3,-18 -10,-24zm156 172c16,-14 35,-22 58,-22 23,0 40,6 53,16 13,11 19,26 19,44 0,12 -5,20 -13,25 -8,4 -25,7 -50,7 -19,0 -36,-1 -53,-2 -16,-1 -31,-2 -44,-5 5,-27 15,-48 30,-63zm112 200c-13,4 -27,6 -42,6 -31,0 -57,-9 -75,-27 -19,-19 -28,-44 -28,-76l0 -4c15,3 31,4 47,5 16,1 31,2 48,2 42,0 72,-5 90,-15 18,-10 27,-27 27,-50 0,-29 -11,-54 -32,-72 -22,-19 -49,-29 -82,-29 -44,0 -79,15 -106,45 -28,30 -42,68 -42,115 0,46 14,83 41,109 27,27 65,40 113,40 27,0 48,-4 64,-11 17,-7 25,-16 25,-27 0,-4 -2,-9 -4,-13 -1,-5 -5,-10 -9,-16 -11,8 -23,14 -35,18zm122 15c-2,4 -2,9 -2,13 0,8 3,14 8,18 6,4 15,7 26,7 32,0 59,-9 82,-27 22,-19 33,-41 33,-65 0,-11 -3,-22 -9,-32 -5,-10 -14,-21 -26,-31 -3,-3 -9,-8 -16,-14 -28,-24 -42,-43 -42,-57 0,-14 5,-24 15,-32 11,-8 25,-13 41,-13 5,0 10,1 15,2 5,2 10,3 15,5 5,-7 8,-13 10,-18 1,-5 2,-8 2,-12 0,-7 -2,-13 -7,-16 -5,-4 -13,-6 -23,-6 -20,0 -38,4 -55,12 -17,8 -32,20 -45,35 -6,8 -11,16 -15,25 -3,9 -5,18 -5,27 0,22 17,47 51,75 4,3 7,5 9,7 14,12 22,21 27,28 5,8 8,16 8,25 0,11 -5,21 -14,27 -9,7 -20,11 -35,11 -6,0 -13,-1 -19,-3 -7,-1 -14,-5 -21,-8 -4,7 -6,12 -8,17z"/>
 </g>
</svg>
